<svg width="94" height="94" viewBox="0 0 94 94" fill="none" xmlns="http://www.w3.org/2000/svg">
<path d="M47 1C21.634 1 1 21.634 1 47C1 72.366 21.634 93 47 93C72.366 93 93 72.366 93 47C93 37.88 90.3206 29.3787 85.7266 22.2227L82.9883 25.457C86.7783 31.765 89 39.12 89 47C89 70.158 70.158 89 47 89C23.842 89 5 70.158 5 47C5 23.842 23.842 5 47 5C57.886 5 67.7878 9.19954 75.2578 16.0195L77.875 12.9297C69.705 5.5197 58.87 1 47 1ZM83.4727 12.5078L44.8281 58.1094L28.5625 42.9375L25.8359 45.8633L45.168 63.8945L86.5274 15.0938L83.4727 12.5078Z" fill="#949494" stroke="#949494" stroke-width="2" stroke-miterlimit="4.13936"/>
</svg>
